<?xml version="1.0" standalone="no"?>
<!DOCTYPE svg PUBLIC "-//W3C//DTD SVG 20010904//EN"
 "http://www.w3.org/TR/2001/REC-SVG-20010904/DTD/svg10.dtd">
<svg version="1.0" xmlns="http://www.w3.org/2000/svg"
 width="300.000000pt" height="316.000000pt" viewBox="0 0 300.000000 316.000000"
 preserveAspectRatio="xMidYMid meet">
<metadata>
Created by potrace 1.10, written by Peter Selinger 2001-2011
</metadata>
<g transform="translate(0.000000,316.000000) scale(0.100000,-0.100000)"
fill="#000000" stroke="none">
<path d="M1200 3131 c-595 -127 -1055 -600 -1171 -1203 -18 -97 -20 -135 -16
-317 5 -221 15 -285 68 -445 68 -203 184 -398 330 -550 88 -93 89 -93 75 -122
-20 -42 -206 -482 -206 -489 0 -17 20 0 30 28 7 17 26 61 43 97 16 36 33 74
37 85 5 11 22 52 39 90 67 155 88 214 80 222 -4 4 23 82 61 173 l69 165 42 3
c23 2 53 1 65 -2 l24 -6 -21 -53 c-74 -187 -180 -478 -175 -485 2 -4 92 -6
199 -4 209 3 339 -8 451 -40 39 -10 85 -23 101 -27 17 -4 50 -18 74 -29 25
-12 50 -22 57 -22 10 0 11 -7 3 -29 l-10 -29 -132 -6 c-224 -10 -877 -21 -877
-15 0 3 22 55 49 115 143 322 262 606 257 611 -3 3 -17 -20 -32 -53 -14 -32
-36 -81 -49 -109 -32 -71 -65 -144 -82 -185 -9 -19 -30 -66 -48 -105 -18 -38
-48 -106 -66 -150 -17 -44 -36 -85 -41 -92 -20 -26 4 -57 42 -55 3 0 203 3
445 6 502 7 528 9 553 40 13 17 27 22 66 21 41 0 51 -4 59 -22 12 -26 -60 -24
612 -23 320 0 413 3 423 13 10 11 -1 43 -61 175 -41 89 -79 168 -84 174 -5 7
-16 29 -23 48 -7 19 -17 39 -22 44 -4 6 -8 18 -8 28 0 10 -4 18 -10 18 -5 0
-10 6 -10 13 0 21 -109 237 -119 237 -6 0 -12 -4 -15 -9 -5 -7 117 -343 178
-491 5 -13 -21 -15 -201 -15 -124 0 -238 -6 -283 -13 -159 -28 -307 -78 -398
-135 l-40 -26 -86 43 c-166 84 -338 116 -627 116 -108 0 -204 -3 -213 -6 -16
-6 -16 -3 -2 32 9 22 65 180 126 353 60 173 113 317 116 320 11 12 280 5 339
-8 119 -26 235 -82 308 -149 l27 -26 33 30 c51 48 97 78 162 106 109 48 179
61 334 62 l144 1 35 -91 34 -91 44 9 c87 19 87 19 161 -142 36 -80 67 -161 68
-180 1 -32 25 -92 111 -278 19 -41 34 -80 34 -87 0 -7 3 -15 8 -17 4 -1 22
-36 39 -76 l32 -73 -182 6 c-100 3 -209 8 -242 10 -33 2 -152 7 -265 11 -113
3 -227 7 -254 9 -37 2 -64 -4 -110 -25 -43 -20 -54 -29 -38 -29 13 -1 40 6 59
16 32 15 69 15 531 -1 273 -9 505 -19 515 -21 9 -2 17 0 17 5 0 4 -54 126
-119 271 l-120 263 63 71 c202 226 343 506 376 743 11 84 -6 47 -40 -83 -32
-126 -103 -294 -172 -407 -22 -38 -45 -68 -51 -68 -6 0 -7 -3 -4 -6 6 -7 -17
-38 -78 -105 -18 -19 -38 -45 -44 -57 -6 -12 -18 -22 -26 -22 -8 0 -15 -5 -15
-12 0 -25 -20 11 -84 152 l-65 145 -56 3 -55 3 50 59 c49 60 135 198 128 205
-2 3 -20 -24 -40 -59 -37 -63 -145 -206 -157 -206 -4 0 -19 36 -35 80 -29 83
-45 100 -90 100 -15 0 -26 6 -26 14 0 19 -40 108 -56 124 -20 19 -17 29 10 36
32 8 87 -4 79 -17 -3 -5 -1 -7 5 -3 11 6 72 -48 72 -65 0 -21 31 -7 41 18 12
33 6 75 -18 120 -9 18 -14 35 -11 39 9 9 78 -15 107 -37 13 -10 28 -16 33 -13
15 10 2 83 -19 113 -26 35 -111 78 -174 86 l-51 7 28 19 c38 25 134 24 187 -3
21 -10 42 -16 47 -13 13 8 13 52 0 60 -5 3 -10 11 -10 17 0 6 6 6 15 -2 11 -9
19 -10 26 -3 16 16 -14 77 -50 104 -23 17 -28 25 -19 32 8 5 4 6 -11 2 -14 -5
-26 -2 -31 5 -5 8 -39 13 -99 14 -50 0 -91 2 -91 3 0 1 12 9 28 16 46 24 143
38 187 27 53 -13 61 -12 47 3 -9 8 -44 12 -100 12 -78 0 -94 -4 -157 -33 -73
-35 -168 -92 -162 -98 2 -2 28 6 58 17 58 23 210 37 273 25 44 -8 100 -56 114
-96 l11 -29 -32 20 c-34 20 -67 25 -67 10 0 -5 9 -11 20 -14 21 -5 58 -72 47
-83 -4 -4 -16 1 -27 11 -29 27 -106 43 -156 34 -23 -4 -66 -23 -96 -41 l-53
-33 88 -7 c140 -10 210 -55 224 -143 l6 -40 -24 21 c-47 42 -96 54 -156 38
-21 -6 -20 -8 18 -43 34 -33 39 -44 39 -83 0 -58 -8 -64 -34 -25 -30 45 -101
80 -146 72 -19 -4 -43 -11 -53 -17 -18 -9 -18 -11 6 -36 45 -49 92 -168 57
-147 -33 21 -279 -9 -325 -39 -19 -12 -23 -12 -31 1 -9 14 -41 16 -229 14
-178 -2 -221 -5 -228 -17 -6 -10 -13 -11 -25 -4 -37 21 -131 37 -214 36 -49
-1 -88 3 -88 7 0 13 31 70 59 107 l26 35 -50 -38 c-74 -55 -147 -97 -172 -97
-24 0 -73 20 -73 29 0 3 20 14 43 24 48 19 101 71 138 132 l23 40 -34 -29
c-77 -64 -175 -85 -221 -47 -19 16 -21 21 -9 24 8 3 37 12 64 21 71 23 141 71
181 126 19 26 35 50 35 54 0 3 -50 -19 -111 -49 -129 -63 -181 -71 -217 -32
-12 13 -22 25 -22 28 0 3 18 5 40 6 22 1 61 11 87 23 53 23 203 121 203 132 0
4 -30 -4 -67 -18 -180 -70 -232 -76 -273 -32 -30 32 -25 38 33 38 32 0 73 9
107 24 30 13 92 40 137 59 45 20 99 39 119 43 31 6 34 8 19 17 -29 16 -113 11
-202 -12 -96 -25 -134 -26 -173 -6 -27 14 -77 72 -68 80 2 2 24 -1 48 -6 53
-12 95 -7 146 17 l36 17 -71 34 c-72 34 -101 67 -101 113 0 24 13 26 31 3 19
-22 71 -43 138 -54 61 -10 267 -1 254 11 -4 4 -51 20 -103 35 -52 15 -116 38
-141 52 -48 25 -89 82 -89 121 0 12 -5 24 -11 28 -8 4 -9 -4 -4 -27 20 -92 66
-135 189 -180 46 -16 48 -18 21 -19 -125 -6 -196 6 -247 42 -16 11 -32 16 -38
13 -13 -8 -13 -48 1 -78 11 -24 98 -87 121 -87 7 0 2 -7 -11 -16 -19 -13 -39
-16 -102 -11 -67 4 -79 3 -79 -11 0 -29 49 -80 96 -98 43 -16 50 -16 117 -1
154 35 160 33 61 -17 -50 -25 -103 -47 -117 -50 -14 -2 -35 -9 -46 -16 -12 -6
-27 -10 -34 -9 -6 1 -24 1 -39 0 -38 -1 -37 -32 3 -65 39 -33 115 -35 186 -6
37 15 43 16 28 4 -37 -30 -140 -74 -172 -74 -40 0 -49 -14 -28 -46 35 -54 90
-52 235 6 l55 22 -30 -32 c-32 -33 -156 -100 -186 -100 -50 0 -26 -54 32 -71
33 -10 49 -10 90 4 35 11 49 12 46 4 -2 -7 -11 -11 -20 -9 -12 2 -15 -2 -11
-13 5 -11 -7 -21 -45 -38 -28 -12 -51 -27 -51 -33 0 -21 41 -48 75 -48 33 0
34 -1 16 -17 -10 -10 -29 -52 -42 -93 -13 -42 -26 -76 -29 -76 -3 0 -32 32
-65 71 -118 139 -211 334 -237 498 -7 45 -15 81 -19 81 -11 0 20 -150 47 -230
40 -116 108 -238 183 -333 l70 -86 -56 -3 -55 -3 -39 -95 c-22 -52 -48 -113
-58 -135 -10 -22 -22 -50 -25 -62 -6 -19 -10 -20 -22 -10 -23 19 -87 86 -109
115 -11 14 -31 39 -46 56 -22 28 -75 107 -106 161 -148 257 -226 601 -194 860
6 50 13 110 16 135 8 64 50 214 81 290 52 128 142 293 178 325 6 6 23 29 38
51 57 89 298 310 322 297 6 -3 8 -2 3 2 -9 10 75 65 99 65 8 0 13 4 10 8 -14
23 364 172 400 158 8 -3 13 -2 10 2 -3 5 36 14 87 22 131 19 156 28 77 28 -36
1 -103 -8 -150 -17z m-255 -2041 c8 -14 -17 -22 -52 -18 l-28 4 25 11 c32 15
47 16 55 3z m760 -73 c-11 -6 -22 -12 -25 -12 -3 0 -10 -3 -16 -7 -6 -4 -73
-8 -150 -8 -111 -1 -146 2 -171 15 -18 9 -33 18 -33 21 0 2 93 4 208 4 165 -1
203 -3 187 -13z m-95 -63 c-19 -8 -47 -27 -62 -41 l-28 -27 -22 21 c-13 11
-41 30 -63 41 l-40 21 125 0 c120 0 124 0 90 -15z m856 -481 c80 -175 148
-321 151 -325 2 -5 -223 -8 -500 -8 l-504 0 -12 26 c-6 15 -10 27 -9 28 25 16
159 70 208 85 130 40 241 52 490 56 102 2 188 4 192 4 4 1 -39 112 -94 249
-55 136 -102 254 -104 262 -14 42 51 -91 182 -377z"/>
<path d="M1612 3145 c3 -3 52 -13 109 -21 138 -20 344 -79 333 -95 -2 -4 4 -5
14 -2 11 2 26 -3 36 -12 9 -9 16 -14 16 -12 0 19 257 -132 273 -159 4 -8 15
-14 23 -14 20 0 264 -248 289 -293 11 -20 23 -37 27 -37 5 0 8 -6 8 -14 0 -8
4 -16 8 -18 15 -5 83 -129 77 -139 -4 -5 -2 -9 4 -9 21 0 99 -197 128 -325 8
-38 22 -81 29 -95 l14 -25 -4 25 c-3 14 -8 43 -11 65 -10 67 -64 233 -104 319
-202 435 -618 763 -1081 850 -79 15 -199 22 -188 11z"/>
<path d="M1567 3043 c-9 -17 -15 -59 -15 -108 0 -44 -3 -94 -6 -111 -7 -39 4
-48 69 -61 96 -18 166 24 186 111 11 51 10 58 -12 103 -16 31 -35 54 -56 64
-18 9 -30 18 -28 21 3 3 -24 6 -59 7 -62 2 -66 0 -79 -26z m155 -20 c37 -18
58 -62 58 -118 0 -38 -6 -51 -34 -83 -34 -37 -35 -37 -106 -35 -40 1 -73 3
-75 5 -1 2 3 41 8 87 7 60 7 86 0 88 -7 3 -6 17 5 44 l15 39 51 -6 c28 -4 63
-13 78 -21z"/>
<path d="M1660 2941 c0 -10 -3 -33 -6 -50 -8 -40 18 -43 42 -6 14 21 15 31 6
50 -14 29 -42 33 -42 6z"/>
<path d="M1269 3055 c-2 -2 -20 -5 -39 -6 -35 -4 -44 -9 -80 -41 -10 -9 -21
-13 -25 -10 -4 4 -6 3 -4 -3 1 -5 -3 -23 -10 -39 -6 -16 -12 -50 -13 -74 -1
-45 -1 -45 -15 -19 -8 15 -11 33 -7 39 4 7 3 8 -4 4 -7 -4 -12 -1 -12 6 0 7
-10 26 -23 42 -23 28 -23 28 -61 12 -21 -9 -46 -24 -55 -34 -9 -9 -27 -17 -41
-18 -36 -1 -51 -7 -73 -28 -24 -23 -18 -78 12 -110 22 -23 55 -95 47 -103 -2
-2 -7 5 -11 16 -3 12 -10 19 -15 16 -5 -3 -17 9 -26 27 -9 18 -31 47 -49 66
-31 33 -32 34 -62 19 -55 -29 -62 -52 -37 -122 6 -16 5 -18 -7 -7 -7 6 -32 12
-55 12 -34 0 -51 -7 -86 -36 -23 -20 -50 -48 -60 -63 -15 -23 -15 -30 -2 -62
10 -23 26 -41 47 -50 18 -8 31 -20 30 -27 -2 -6 2 -12 8 -12 6 0 28 -19 49
-41 37 -40 39 -41 69 -28 17 8 31 18 31 24 0 6 14 21 31 35 47 38 100 90 92
90 -4 0 12 11 37 24 32 17 45 30 44 45 0 16 5 20 25 19 14 -1 30 -7 34 -13 5
-6 7 -3 3 7 -3 11 2 19 15 23 11 4 24 18 30 32 8 21 12 23 24 13 12 -10 24 -9
60 4 51 20 62 43 41 84 -21 40 -9 47 20 13 50 -60 168 -55 229 9 23 25 30 41
33 90 5 65 -6 90 -39 90 -13 0 -19 7 -19 24 0 13 -6 28 -13 34 -15 13 -64 32
-68 27z m45 -80 c-19 -26 -29 -31 -53 -27 -40 6 -70 -36 -53 -74 7 -13 19 -27
27 -30 21 -8 65 4 65 17 0 6 -9 9 -20 6 -17 -4 -20 0 -20 28 0 31 2 33 57 44
65 13 73 8 73 -49 0 -97 -112 -160 -201 -114 -33 16 -68 81 -69 124 0 82 113
156 187 122 l32 -15 -25 -32z m-267 -92 c19 -43 44 -97 54 -120 l18 -42 -35
-11 c-33 -11 -38 -10 -95 30 l-60 42 30 -59 30 -60 -35 -15 -34 -16 -35 76
c-19 41 -35 79 -35 83 0 5 -7 6 -15 3 -11 -5 -15 1 -15 19 0 14 -2 32 -5 39
-4 10 8 21 34 32 39 18 40 18 73 -6 57 -43 61 -42 38 2 -12 23 -20 43 -18 45
4 4 62 34 66 35 2 0 19 -35 39 -77z m-237 -184 l69 -94 -27 -22 c-15 -13 -30
-23 -34 -23 -4 0 -28 31 -55 70 -26 38 -53 68 -59 66 -6 -2 -17 12 -24 32 -12
34 -11 37 16 59 16 12 32 19 37 14 5 -5 39 -51 77 -102z m-160 -34 c35 -18 50
-43 50 -83 0 -28 3 -30 46 -37 l47 -7 -35 -35 c-35 -34 -35 -35 -71 -19 -43
17 -49 6 -11 -19 l27 -17 -32 -30 -31 -29 -61 65 c-33 36 -66 63 -72 61 -7 -3
-19 10 -29 29 l-16 34 41 39 c69 66 95 75 147 48z m96 -54 c30 -30 31 -51 3
-44 -12 4 -18 11 -15 20 3 8 1 11 -4 8 -6 -3 -10 0 -10 7 0 7 -3 24 -5 38 -3
14 -2 18 1 10 4 -8 18 -26 30 -39z m144 28 c0 -6 -4 -7 -10 -4 -5 3 -10 11
-10 16 0 6 5 7 10 4 6 -3 10 -11 10 -16z"/>
<path d="M581 2587 c-8 -11 -6 -18 8 -31 19 -17 20 -17 31 3 18 35 -13 58 -39
28z"/>
<path d="M1894 2983 c-14 -15 -28 -39 -31 -54 -3 -15 -19 -42 -36 -60 -17 -19
-29 -35 -26 -36 2 -1 -5 -12 -16 -25 -27 -31 -21 -53 20 -72 37 -18 85 -21 85
-6 0 5 7 7 15 4 8 -4 15 -12 15 -19 0 -20 54 -55 84 -55 14 0 29 -6 33 -14 12
-19 89 -66 110 -66 10 0 24 -12 31 -27 13 -30 101 -93 129 -93 18 0 123 106
123 124 0 6 14 20 31 31 51 34 55 51 17 85 -18 17 -37 30 -42 30 -5 0 -17 10
-27 22 -11 11 -19 17 -19 13 0 -4 -9 0 -20 10 -18 17 -21 17 -52 -2 -18 -10
-39 -32 -47 -48 -21 -44 -44 -65 -60 -56 -17 11 -7 61 17 87 52 57 46 105 -16
125 -44 14 -76 -2 -92 -45 -18 -47 -29 -69 -50 -96 l-19 -25 5 70 c2 39 6 88
9 110 5 52 -1 61 -65 91 -66 30 -75 30 -106 -3z m91 -16 c33 -13 59 -26 59
-30 -1 -4 -5 -63 -9 -132 -4 -69 -10 -125 -13 -125 -26 0 -72 27 -72 42 0 11
-13 23 -32 32 -29 12 -35 12 -45 -1 -10 -13 -17 -13 -52 -2 l-40 14 55 73 c30
40 52 77 49 82 -4 7 32 70 40 70 0 0 28 -10 60 -23z m262 -132 c2 -1 -17 -34
-42 -74 -25 -40 -45 -77 -45 -81 0 -5 10 -12 21 -15 21 -7 21 -8 -9 -37 l-30
-31 -34 21 c-18 12 -39 25 -46 30 -10 7 -2 26 32 82 25 40 43 77 40 82 -4 5 6
23 21 38 l28 29 31 -21 c17 -12 32 -22 33 -23z m172 -120 c9 -5 29 -19 44 -30
l27 -20 -35 -28 -36 -28 -31 26 c-19 16 -34 23 -36 16 -2 -6 11 -23 28 -37
l31 -27 -20 -21 -21 -20 -28 27 c-32 30 -42 34 -42 13 0 -8 14 -24 30 -36 17
-12 30 -25 30 -29 0 -13 -60 -42 -73 -35 -22 14 -97 78 -97 84 0 3 25 35 55
72 30 36 51 68 48 72 -4 4 6 17 22 30 l30 24 28 -22 c16 -11 36 -25 46 -31z"/>
<path d="M1941 2858 c-17 -29 -18 -34 -5 -41 19 -11 20 -10 28 36 8 45 4 46
-23 5z"/>
<path d="M1395 2728 c-44 -5 -91 -13 -105 -18 -20 -8 -18 -8 13 -3 21 3 73 8
115 12 42 3 73 9 67 12 -5 3 -46 1 -90 -3z"/>
<path d="M1515 2729 c7 -11 35 -12 35 -1 0 4 -9 8 -20 9 -11 1 -18 -2 -15 -8z"/>
<path d="M1560 2730 c0 -3 42 -11 93 -18 50 -6 106 -14 122 -17 17 -3 8 2 -20
10 -57 16 -195 34 -195 25z"/>
<path d="M1171 2680 c-47 -17 -74 -30 -60 -30 17 1 150 49 134 49 -11 0 -44
-8 -74 -19z"/>
<path d="M1860 2668 c191 -81 280 -138 398 -252 118 -114 203 -246 263 -406
15 -41 28 -69 29 -63 0 20 -44 131 -83 208 -108 215 -331 417 -551 500 -65 25
-105 34 -56 13z"/>
<path d="M1025 2619 c-149 -77 -262 -173 -394 -335 -54 -66 -171 -328 -171
-379 1 -11 14 18 29 65 40 121 64 171 125 265 102 156 236 278 407 369 94 51
98 63 4 15z"/>
<path d="M1587 2619 c-56 -43 -68 -103 -47 -238 6 -35 9 -65 7 -67 -2 -2 -20
29 -41 70 -25 49 -40 94 -46 139 -12 99 -25 109 -76 56 -25 -26 -29 -38 -29
-87 0 -31 3 -70 7 -87 8 -29 7 -29 -11 5 -10 19 -26 60 -36 90 -37 116 -42
120 -82 60 -27 -39 -30 -92 -8 -144 9 -20 13 -42 9 -49 -4 -7 -4 -9 1 -5 8 7
65 -64 65 -81 0 -5 7 -14 15 -21 9 -7 13 -15 11 -17 -3 -3 -16 6 -30 20 -14
14 -22 28 -18 32 4 4 0 5 -8 3 -8 -1 -14 2 -13 9 2 7 -3 10 -10 7 -18 -6 -126
111 -133 144 -10 47 -14 54 -27 50 -34 -12 -44 -96 -22 -178 6 -21 1 -18 -33
18 -23 24 -44 52 -47 63 -16 48 -55 6 -55 -58 0 -32 27 -143 29 -120 1 10 88
-81 95 -100 3 -8 10 -12 15 -9 11 7 36 -22 27 -31 -8 -8 -51 16 -123 69 -36
26 -53 46 -53 61 0 16 -3 18 -9 8 -7 -10 -17 -4 -44 25 -41 45 -56 40 -66 -23
-8 -47 8 -84 62 -140 38 -39 39 -43 19 -43 -31 0 -80 26 -121 64 -28 26 -31
27 -22 8 27 -52 120 -98 236 -118 l40 -6 -73 51 c-40 29 -86 71 -103 94 -26
36 -30 49 -26 85 3 24 7 45 10 48 3 3 29 -20 58 -51 29 -31 74 -71 99 -90 58
-42 210 -126 210 -116 0 14 -53 73 -137 155 -108 103 -130 151 -103 222 l11
27 28 -44 c15 -24 77 -90 137 -147 60 -57 124 -122 142 -144 17 -22 32 -36 32
-29 0 34 -60 121 -136 197 -107 107 -122 145 -90 219 l13 30 14 -45 c10 -36
37 -69 128 -163 64 -65 126 -134 138 -155 21 -34 23 -35 23 -12 0 33 -39 115
-90 190 -84 124 -96 184 -48 245 l21 27 22 -75 c12 -42 33 -98 47 -126 29 -55
89 -140 100 -141 4 0 -7 29 -23 65 -38 84 -61 173 -54 207 6 25 49 78 64 78 4
0 12 -36 17 -80 8 -60 22 -102 57 -173 26 -52 53 -118 61 -148 28 -102 23 49
-6 181 -28 129 -22 175 29 218 l38 34 5 -149 c4 -119 9 -156 25 -188 l20 -40
7 55 c25 177 49 218 133 227 l50 6 -41 -45 c-45 -48 -56 -82 -74 -225 -6 -45
-17 -105 -25 -135 -7 -29 -12 -54 -10 -56 2 -2 17 16 33 40 30 44 63 117 98
217 32 92 87 128 169 110 17 -4 25 -7 18 -8 -36 -3 -97 -81 -118 -151 -7 -22
-1 -19 41 20 27 25 49 48 49 52 0 3 4 10 9 15 5 5 6 2 1 -6 -6 -10 -2 -11 16
-5 27 10 95 11 104 2 4 -3 -14 -25 -39 -49 -26 -23 -62 -63 -82 -90 -35 -48
-164 -266 -164 -278 0 -3 56 51 124 121 153 157 202 185 273 157 l28 -11 -60
-28 c-34 -15 -73 -42 -88 -59 -30 -36 -37 -63 -9 -38 24 22 86 47 114 47 13 0
43 -10 68 -21 l45 -21 -62 -18 c-95 -26 -204 -106 -300 -217 l-47 -56 157 81
c193 101 224 104 300 34 15 -14 27 -20 27 -14 0 7 -7 15 -16 19 -8 3 -13 12
-10 20 3 8 1 11 -4 8 -5 -3 -21 2 -35 11 -46 30 -102 23 -198 -24 -49 -24 -93
-42 -99 -40 -15 5 88 96 134 117 21 9 36 20 33 23 -5 5 60 26 100 32 37 5 29
34 -16 57 -33 16 -55 20 -96 17 -29 -3 -53 -3 -53 -2 0 12 61 32 80 27 19 -5
22 -3 17 10 -4 11 -1 17 8 17 17 0 19 9 6 28 -12 20 -85 27 -123 11 -36 -14
-67 -37 -145 -110 -29 -27 -53 -46 -53 -44 0 9 25 50 35 57 6 4 6 8 2 8 -13 0
53 91 112 153 53 56 55 59 36 73 -31 23 -166 10 -151 -15 3 -4 -4 -12 -15 -19
-11 -7 -19 -8 -19 -2 0 5 5 10 11 10 5 0 8 4 5 9 -4 5 15 28 41 50 39 34 45
43 33 51 -26 17 -93 11 -130 -11 -47 -29 -53 -39 -95 -146 -20 -51 -39 -93
-42 -93 -11 0 11 192 26 233 14 35 58 80 71 72 9 -5 9 -1 0 15 -11 20 -18 22
-62 18 -35 -4 -57 -12 -74 -29 -28 -28 -64 -120 -64 -164 -1 -28 -2 -28 -12
-10 -7 12 -14 77 -16 158 -3 93 -8 137 -16 137 -6 0 -24 -10 -39 -21z m-431
-381 l29 -33 -32 29 c-31 28 -38 36 -30 36 2 0 16 -15 33 -32z"/>
<path d="M1327 2543 c-10 -9 -9 -23 1 -23 5 0 9 7 9 15 0 17 -1 18 -10 8z"/>
<path d="M1492 2475 c0 -16 2 -22 5 -12 2 9 2 23 0 30 -3 6 -5 -1 -5 -18z"/>
<path d="M389 2478 c-34 -13 -68 -47 -91 -92 -19 -38 -20 -41 -4 -71 10 -19
34 -39 57 -49 21 -10 37 -22 34 -27 -11 -17 -41 -9 -80 20 -21 15 -46 26 -56
24 -19 -5 -69 -108 -69 -142 0 -56 45 -99 99 -97 32 2 49 -3 69 -21 50 -43 76
-39 123 21 18 22 21 37 17 85 -3 50 -2 58 12 54 10 -3 27 8 42 26 14 16 28 28
30 26 3 -3 3 9 0 25 -2 17 -8 30 -13 30 -5 0 -9 26 -9 58 0 48 -4 63 -28 91
-30 36 -91 54 -133 39z m113 -48 c25 -26 29 -36 26 -68 -3 -20 -8 -44 -12 -54
-5 -11 -1 -18 13 -23 26 -8 26 -16 3 -54 l-18 -30 -73 49 c-41 26 -79 46 -85
44 -7 -3 -22 7 -35 20 l-24 25 27 45 c33 57 60 76 109 76 30 0 46 -7 69 -30z
m-208 -186 l28 -25 -21 -23 c-20 -21 -28 -46 -15 -46 4 0 22 14 41 30 104 92
200 -54 98 -150 l-23 -22 -31 23 -30 22 25 19 c23 18 34 58 16 58 -5 0 -21
-13 -37 -30 -51 -53 -111 -48 -136 12 -9 22 -8 35 2 61 8 17 14 34 15 37 2 13
28 60 33 60 3 0 19 -12 35 -26z"/>
<path d="M413 2383 c-20 -7 -15 -19 12 -31 28 -13 43 1 25 23 -13 16 -17 17
-37 8z"/>
<path d="M2558 2483 c-9 -2 -25 -22 -35 -43 -10 -22 -23 -38 -28 -36 -6 2 -26
-4 -45 -13 -44 -20 -50 -54 -19 -115 17 -36 32 -49 71 -66 27 -11 53 -18 59
-14 6 3 4 -7 -4 -23 -33 -63 -19 -136 33 -183 27 -24 28 -28 14 -42 -22 -21
-3 -94 27 -103 18 -6 19 -9 6 -23 -13 -16 -31 -80 -19 -67 3 3 10 -5 16 -18 9
-16 21 -22 46 -23 19 -1 41 3 47 8 7 6 19 8 27 5 7 -3 18 -1 23 4 5 5 31 11
56 12 26 1 47 5 47 10 0 4 6 7 14 7 28 0 38 26 26 69 -10 39 -37 60 -60 46 -5
-3 -10 -2 -10 2 0 5 10 13 23 18 29 13 35 63 10 94 -22 27 -89 37 -112 18 -15
-13 -102 -40 -108 -33 -2 1 5 11 15 22 29 31 32 51 12 69 -24 22 -20 60 5 60
12 0 22 -12 29 -32 15 -42 24 -51 66 -56 84 -9 92 83 15 170 -29 32 -84 52
-132 47 -24 -2 -43 -2 -43 1 0 13 37 43 60 50 75 22 68 73 -22 163 -22 21 -64
27 -110 15z m106 -45 c18 -18 40 -47 49 -64 l16 -31 -40 -16 -40 -16 -6 29
c-3 16 -12 35 -21 42 -13 11 -14 7 -8 -36 9 -58 -5 -99 -41 -115 -54 -25 -125
25 -139 98 -6 27 -3 32 20 41 38 14 46 13 46 -9 0 -10 9 -29 20 -42 l21 -24
-6 62 c-6 57 -5 64 19 88 34 34 70 32 110 -7z m111 -232 c12 -8 28 -28 35 -45
7 -17 15 -31 19 -31 3 0 7 -16 9 -36 2 -30 -1 -35 -14 -30 -8 3 -29 6 -45 6
-26 0 -29 4 -29 30 0 41 -37 66 -73 49 -14 -6 -28 -21 -31 -32 -6 -23 17 -67
35 -67 5 0 -2 -15 -17 -34 -23 -29 -30 -32 -46 -23 -10 7 -28 31 -39 54 -60
123 79 236 196 159z m91 -220 c1 0 4 -18 8 -38 6 -35 5 -38 -16 -38 -51 0 -65
-10 -60 -41 4 -28 6 -29 41 -23 20 4 40 7 45 8 7 1 29 -66 23 -70 -4 -3 -252
-52 -253 -51 -1 1 -4 18 -8 38 l-6 37 46 7 c44 6 45 8 39 33 -9 36 -9 36 -54
24 l-41 -10 -10 36 c-5 20 -8 37 -6 39 2 2 42 11 90 20 58 12 85 21 82 29 -3
9 7 10 37 7 23 -3 43 -6 43 -7z"/>
<path d="M1010 2411 c0 -6 4 -13 10 -16 6 -3 7 1 4 9 -7 18 -14 21 -14 7z"/>
<path d="M2048 2413 c7 -3 16 -2 19 1 4 3 -2 6 -13 5 -11 0 -14 -3 -6 -6z"/>
<path d="M1484 1896 c-1 -79 -7 -107 -44 -214 -37 -106 -42 -131 -38 -185 4
-59 36 -143 73 -191 20 -26 33 -11 15 17 -79 126 -85 222 -25 362 31 73 51
163 46 210 -1 18 0 18 20 -5 100 -117 109 -330 22 -530 -14 -33 -23 -63 -19
-67 10 -11 22 8 50 81 52 131 67 251 45 358 -13 63 -67 169 -112 219 l-32 36
-1 -91z"/>
<path d="M230 1915 c-7 -8 -18 -32 -25 -52 -12 -35 -16 -38 -48 -35 -28 3 -38
-1 -47 -18 -14 -26 -5 -57 18 -64 10 -4 19 -18 20 -33 1 -15 11 -35 23 -46 19
-18 19 -20 4 -37 -14 -15 -15 -25 -6 -52 6 -18 13 -59 17 -91 4 -40 11 -61 24
-69 14 -9 16 -16 8 -34 -12 -27 4 -104 29 -144 9 -13 17 -37 19 -53 2 -33 30
-68 49 -60 26 9 35 -7 15 -27 -11 -11 -20 -27 -20 -35 0 -16 42 -31 58 -21 13
8 18 -10 19 -64 1 -30 -1 -35 -4 -15 -6 39 -16 49 -43 40 -20 -6 -21 -12 -16
-48 8 -48 56 -137 74 -137 6 0 12 -4 12 -10 0 -15 53 -12 75 3 10 8 19 27 21
42 4 35 24 59 24 28 0 -28 24 -36 44 -14 20 22 21 80 2 125 -16 39 -64 86 -87
86 -24 0 -27 7 -19 51 4 22 5 37 2 34 -6 -5 -52 89 -68 139 -12 39 -38 55 -64
38 -25 -16 -43 -15 -37 1 2 6 10 12 18 12 26 0 63 41 54 62 -4 10 -7 26 -6 36
1 10 -5 30 -14 43 -13 21 -22 24 -45 19 -16 -4 -37 -2 -47 4 -19 11 -20 11 45
14 28 2 47 36 33 58 -9 16 -8 19 9 19 20 0 35 33 28 66 -3 19 -47 47 -90 58
-32 7 -35 18 -13 36 13 11 14 10 10 -3 -11 -27 33 -32 60 -7 65 61 24 195 -50
162 -15 -7 -26 -8 -30 -2 -9 14 -21 12 -35 -5z m14 -35 c-9 -17 -14 -38 -12
-48 3 -13 12 -5 38 30 31 42 60 58 62 35 0 -5 -19 -35 -42 -68 -34 -46 -46
-56 -57 -48 -23 20 -9 129 18 129 4 0 1 -14 -7 -30z m116 -34 c0 -34 -32 -86
-52 -86 -7 0 -2 10 10 23 11 12 23 36 27 52 l7 30 -29 -33 c-40 -46 -51 -40
-13 8 17 22 36 40 41 40 5 0 9 -15 9 -34z m-157 -65 c13 -13 15 -21 8 -25 -6
-4 -14 0 -17 8 -7 18 -31 21 -36 5 -6 -17 -38 2 -38 23 0 18 4 20 32 14 18 -4
41 -15 51 -25z m67 -69 c76 -26 85 -32 88 -55 2 -15 2 -27 0 -27 -2 0 -43 13
-93 29 -80 26 -90 32 -93 55 -2 14 1 26 5 26 5 0 47 -13 93 -28z m-8 -64 l39
-11 -57 -24 c-68 -27 -64 -27 -64 -9 0 8 14 17 31 21 28 6 29 8 12 21 -22 17
-12 17 39 2z m68 -73 c0 -11 -11 -15 -43 -15 -51 0 -65 -11 -59 -48 4 -28 5
-28 55 -21 29 3 52 6 53 5 1 0 4 -13 7 -27 6 -25 5 -26 -46 -33 -88 -10 -84
-12 -91 55 -8 70 0 86 47 92 67 8 77 7 77 -8z m30 -169 c0 -9 -20 -19 -50 -26
-41 -10 -50 -16 -50 -33 0 -44 13 -50 68 -34 49 15 50 15 56 -6 9 -34 9 -34
-41 -46 -27 -7 -55 -14 -64 -17 -12 -3 -20 10 -32 55 -9 33 -14 66 -11 74 3 8
29 21 57 30 68 19 67 19 67 3z m70 -223 c12 -29 20 -59 17 -67 -5 -13 -88 -56
-108 -56 -24 0 -4 23 35 40 49 21 58 30 47 49 -7 10 -13 10 -29 2 -26 -14 -32
-14 -32 -1 0 5 15 16 33 24 17 8 26 15 19 15 -7 1 -34 -10 -61 -23 l-48 -25
-12 26 c-6 14 -10 27 -8 29 12 12 113 51 118 46 4 -4 17 -31 29 -59z m30 -140
c0 -10 5 -61 10 -113 5 -54 5 -99 0 -104 -18 -18 -60 5 -90 49 -34 49 -49 108
-31 119 7 5 11 -4 11 -25 0 -33 34 -99 51 -99 9 0 4 134 -6 167 -5 16 5 23 32
23 15 0 23 -6 23 -17z m59 -9 c34 -28 55 -83 49 -128 -5 -50 -23 -40 -20 11 3
46 -24 113 -46 113 -4 0 -5 -30 -2 -66 3 -36 2 -68 -2 -70 -10 -6 -8 -14 -16
84 -4 45 -4 82 0 82 3 0 20 -12 37 -26z"/>
<path d="M2551 1914 c0 -11 3 -14 6 -6 3 7 2 16 -1 19 -3 4 -6 -2 -5 -13z"/>
<path d="M2295 1886 c-16 -12 -14 -14 28 -18 64 -8 97 -31 97 -69 0 -19 4 -28
11 -23 13 8 3 53 -17 76 -11 12 -12 18 -4 23 19 12 -10 25 -56 25 -22 0 -48
-6 -59 -14z m105 -6 c0 -13 -30 -13 -50 0 -11 7 -7 10 18 10 17 0 32 -4 32
-10z"/>
<path d="M441 1800 c-7 -47 -11 -125 -9 -175 l4 -90 2 106 c1 58 7 131 13 163
5 31 8 63 6 69 -2 7 -9 -26 -16 -73z"/>
<path d="M2572 1820 c0 -19 2 -27 5 -17 2 9 2 25 0 35 -3 9 -5 1 -5 -18z"/>
<path d="M2583 1715 c0 -33 2 -45 4 -27 2 18 2 45 0 60 -2 15 -4 0 -4 -33z"/>
<path d="M2774 1718 c-3 -5 -12 -7 -19 -4 -7 2 -22 -2 -33 -9 -10 -8 -22 -12
-24 -9 -3 3 -20 -14 -38 -36 -44 -55 -51 -119 -21 -178 11 -22 30 -47 42 -56
22 -15 22 -15 -17 -33 -47 -22 -69 -45 -94 -98 -16 -33 -17 -48 -9 -87 6 -26
21 -57 34 -70 22 -22 22 -24 4 -25 -10 -1 -19 2 -19 7 0 11 -48 22 -69 15 -18
-6 -61 -81 -61 -108 0 -12 62 -77 75 -77 2 0 11 7 19 16 15 14 23 12 92 -20
41 -20 80 -34 85 -30 5 3 19 24 30 46 l20 40 -23 27 c-13 14 -26 27 -30 29
-19 9 -4 22 40 37 55 19 87 55 103 116 10 39 9 50 -10 94 -12 28 -33 58 -47
66 l-25 15 43 20 c55 24 74 41 93 87 37 89 2 165 -103 218 -19 10 -35 13 -38
7z m87 -64 c84 -80 39 -219 -75 -231 -34 -4 -53 -1 -79 16 -37 22 -67 73 -67
112 0 36 37 102 67 122 42 27 115 18 154 -19z m-96 -288 c47 -20 75 -69 75
-130 0 -43 -4 -53 -39 -87 -33 -34 -45 -39 -82 -39 -56 0 -87 16 -116 59 -43
63 -21 148 49 191 39 24 67 25 113 6z m-166 -286 c40 -21 78 -37 84 -34 7 2
24 -7 37 -21 23 -25 23 -26 7 -60 -16 -33 -18 -35 -39 -22 -13 8 -49 28 -81
46 l-57 31 -11 -27 -10 -27 -30 31 -31 30 24 46 c13 26 26 47 29 47 3 0 39
-18 78 -40z m86 0 c3 -5 2 -10 -4 -10 -5 0 -13 5 -16 10 -3 6 -2 10 4 10 5 0
13 -4 16 -10z"/>
<path d="M2737 1592 c-33 -36 -8 -92 40 -92 25 0 53 30 53 57 0 46 -62 69 -93
35z m63 -29 c0 -22 -4 -27 -25 -29 -23 -1 -36 13 -28 32 6 17 53 14 53 -3z"/>
<path d="M2684 1292 c-43 -29 -30 -94 20 -100 32 -4 66 22 66 50 0 38 -55 71
-86 50z m52 -49 c-4 -23 -29 -33 -43 -18 -10 11 -10 17 2 29 18 18 44 11 41
-11z"/>
<path d="M2582 1600 c-1 -30 -4 -80 -7 -110 l-4 -55 10 55 c5 30 8 80 6 110
l-3 55 -2 -55z"/>
<path d="M1110 1627 c0 -10 -17 -50 -37 -90 -52 -101 -51 -147 5 -249 47 -84
111 -149 175 -179 37 -16 67 -19 263 -19 l221 0 59 38 c69 44 140 122 180 196
41 75 38 122 -16 229 -42 85 -44 87 -63 70 -54 -50 -59 -104 -17 -196 16 -36
32 -84 36 -106 l7 -41 -58 0 c-55 0 -57 1 -51 23 21 72 19 124 -9 183 -15 33
-31 77 -34 98 l-6 39 -31 -26 c-43 -36 -68 -91 -61 -133 3 -19 29 -67 57 -107
l51 -72 -63 -2 c-206 -8 -448 -7 -448 2 0 5 21 39 46 76 50 74 59 121 30 176
-14 29 -60 73 -75 73 -3 0 -7 -15 -8 -33 -1 -17 -13 -57 -27 -87 -39 -84 -30
-194 18 -225 26 -17 176 -21 236 -7 20 5 46 5 59 1 12 -5 73 -5 134 -1 62 5
137 5 167 2 l55 -6 -58 -57 c-33 -31 -63 -55 -68 -51 -5 3 -9 1 -9 -4 0 -19
-37 -23 -251 -29 -207 -5 -219 -5 -261 15 -40 20 -128 96 -128 111 0 4 21 8
48 10 70 3 78 21 9 21 -37 0 -59 5 -62 13 -7 16 16 98 45 163 17 37 21 61 16
86 -7 40 -75 125 -76 95z m814 -56 c14 -27 14 -29 -9 -41 -13 -7 -23 -16 -21
-19 2 -3 0 -15 -4 -26 -6 -17 -8 -16 -14 11 -7 29 14 104 28 104 3 0 12 -13
20 -29z m-778 -2 c13 -22 21 -77 13 -90 -6 -10 -10 -9 -15 6 -4 11 -16 28 -27
37 -15 13 -16 21 -7 37 12 23 25 27 36 10z m170 -30 c19 -22 19 -22 -3 -8 -13
8 -23 17 -23 21 0 12 6 9 26 -13z m423 0 c-22 -14 -33 -10 -19 6 7 8 17 12 22
9 6 -4 5 -10 -3 -15z m231 -107 c0 -13 -5 -33 -11 -44 -11 -20 -12 -19 -25 18
-15 43 -18 83 -7 110 6 15 10 11 25 -21 9 -22 18 -50 18 -63z m-850 38 c0 -14
-6 -45 -14 -70 -12 -41 -14 -43 -24 -23 -16 30 -15 64 4 108 12 29 18 35 25
24 5 -8 9 -25 9 -39z m195 -8 c0 -40 -40 -116 -56 -106 -17 10 -9 86 13 125
26 46 43 38 43 -19z m453 19 c22 -39 30 -115 13 -125 -4 -3 -20 17 -36 45 -21
39 -26 58 -21 85 4 19 10 34 15 34 4 0 17 -17 29 -39z m196 -136 c-6 -16 -24
-21 -24 -7 0 11 11 22 21 22 5 0 6 -7 3 -15z m-864 -21 c0 -20 -7 -17 -20 6
-9 16 -8 18 5 14 8 -4 15 -12 15 -20z m155 6 c3 -5 1 -10 -4 -10 -6 0 -11 5
-11 10 0 6 2 10 4 10 3 0 8 -4 11 -10z m545 6 c0 -3 -4 -8 -10 -11 -5 -3 -10
-1 -10 4 0 6 5 11 10 11 6 0 10 -2 10 -4z"/>
<path d="M643 1443 c9 -2 25 -2 35 0 9 3 1 5 -18 5 -19 0 -27 -2 -17 -5z"/>
<path d="M2545 1363 c-10 -38 -29 -92 -42 -122 -13 -30 -21 -56 -19 -58 5 -6
60 132 76 190 7 26 11 50 8 52 -3 3 -13 -25 -23 -62z"/>
<path d="M765 1160 c3 -5 8 -10 11 -10 2 0 4 5 4 10 0 6 -5 10 -11 10 -5 0 -7
-4 -4 -10z"/>
<path d="M1870 746 c6 -8 17 -13 24 -10 7 3 21 -7 31 -22 l17 -27 -46 5 c-25
3 -46 2 -46 -3 0 -5 20 -9 45 -9 38 0 45 -3 45 -19 0 -16 -8 -20 -41 -23 l-41
-3 20 -25 21 -25 1 23 c0 15 6 22 20 22 17 0 20 -7 20 -39 0 -22 5 -43 12 -47
8 -5 9 11 5 64 l-7 72 55 0 c53 0 55 -1 55 -27 0 -24 -1 -25 -18 -10 -11 10
-26 14 -40 10 -31 -8 -28 -24 4 -21 35 4 42 -18 9 -26 -14 -4 -25 -11 -25 -16
0 -15 23 -12 48 6 21 15 22 14 22 -15 0 -16 5 -33 11 -37 8 -5 10 14 7 65 -4
68 -3 71 19 71 18 0 23 -6 23 -25 0 -14 -4 -25 -10 -25 -5 0 -7 -7 -4 -15 7
-17 34 -21 34 -5 0 6 9 10 20 10 16 0 20 -7 20 -35 0 -19 5 -35 11 -35 7 0 10
23 7 65 -2 47 0 65 10 65 6 0 12 5 12 11 0 7 -43 10 -134 7 l-134 -3 -21 33
c-15 22 -29 32 -47 32 -22 0 -24 -2 -14 -14z m310 -91 c0 -20 -5 -25 -24 -25
-18 0 -23 5 -23 25 0 20 5 25 23 25 19 0 24 -5 24 -25z"/>
<path d="M1540 735 c-10 -12 -10 -18 0 -30 11 -13 0 -15 -89 -15 -61 0 -101
-4 -101 -10 0 -5 20 -10 45 -10 25 0 45 -4 45 -10 0 -5 -16 -10 -35 -10 -23 0
-38 -6 -42 -16 -6 -17 21 -84 35 -84 4 0 8 -12 7 -27 0 -24 4 -28 33 -31 18
-2 32 1 32 8 0 6 -12 9 -26 8 -32 -4 -43 18 -15 27 18 6 21 15 21 71 l0 64 45
0 c25 0 48 0 52 1 4 0 9 -4 11 -10 2 -7 -11 -11 -32 -11 -24 0 -39 -5 -43 -16
-7 -19 22 -84 37 -84 7 0 5 9 -4 22 -25 35 -20 58 12 58 25 0 27 -3 27 -42 0
-22 5 -43 10 -45 6 -2 9 23 7 65 -3 57 -1 69 12 69 13 0 16 -13 16 -63 0 -35
5 -66 10 -69 6 -4 10 19 10 63 0 67 1 70 25 70 18 0 25 -6 25 -19 0 -11 -7
-19 -15 -19 -19 0 -19 -11 -2 -35 10 -12 22 -16 40 -13 23 4 27 2 27 -18 0
-12 5 -26 10 -29 7 -4 9 17 7 60 -3 52 -1 68 12 75 11 6 -6 9 -55 10 -66 0
-71 2 -92 30 -25 33 -43 38 -62 15z m48 -17 c19 -19 14 -30 -10 -26 -13 2 -24
11 -26 21 -4 20 18 23 36 5z m132 -68 c0 -31 -27 -54 -49 -41 -9 6 -8 11 4 21
9 7 13 21 10 31 -5 14 -1 19 14 19 17 0 21 -6 21 -30z m-283 -60 c1 -46 -16
-53 -41 -18 -25 35 -20 58 12 58 25 0 27 -4 29 -40z"/>
<path d="M953 682 c-62 -1 -113 -6 -113 -10 0 -4 20 -6 45 -4 27 3 45 0 45 -6
0 -6 -17 -12 -37 -14 -30 -2 -38 -7 -38 -23 0 -13 8 -21 23 -23 22 -3 28 -13
15 -25 -3 -4 -12 -2 -19 4 -22 18 -28 -11 -5 -32 24 -23 35 -25 28 -4 -4 8 -2
17 3 20 20 12 10 43 -17 53 -28 10 -27 10 10 11 l37 1 0 -44 c0 -25 5 -48 10
-51 6 -4 10 20 10 64 0 56 3 71 15 71 12 0 15 -14 15 -64 0 -36 5 -68 11 -71
7 -5 10 15 8 61 l-3 69 53 3 c46 3 52 1 49 -15 -2 -12 -14 -18 -37 -20 -44 -4
-45 -6 -22 -34 l20 -24 1 23 c0 15 6 22 20 22 17 0 20 -7 20 -39 0 -22 4 -42
9 -45 4 -3 6 26 3 64 l-5 70 27 0 c21 0 26 -5 26 -24 0 -13 -6 -26 -12 -29
-10 -3 -10 -8 1 -21 11 -13 16 -14 22 -5 4 7 17 14 28 16 18 2 21 -2 21 -32 0
-19 5 -35 10 -35 7 0 8 23 4 65 -6 57 -5 65 10 65 10 0 14 5 11 10 -4 6 -43 9
-98 8 -51 -2 -143 -4 -204 -6z m267 -37 c0 -20 -5 -25 -25 -25 -20 0 -25 5
-25 25 0 20 5 25 25 25 20 0 25 -5 25 -25z"/>
<path d="M2140 540 c0 -5 10 -10 23 -10 12 0 28 -9 35 -20 7 -11 17 -20 24
-20 6 0 -1 14 -17 30 -28 29 -65 40 -65 20z"/>
<path d="M1181 531 c-9 -6 -10 -11 -2 -15 6 -4 16 -4 22 -1 6 4 21 -3 35 -16
13 -12 24 -18 24 -12 0 12 -43 53 -56 53 -5 0 -15 -4 -23 -9z"/>
<path d="M1169 56 c-2 -2 -65 -7 -139 -11 -74 -4 -160 -9 -190 -11 -30 -1 -75
-7 -100 -12 -45 -10 -45 -10 25 -11 39 0 174 6 302 14 207 13 235 13 262 -1
17 -9 39 -14 49 -12 12 3 5 10 -25 26 -32 16 -60 22 -111 22 -38 0 -71 -2 -73
-4z"/>
</g>
</svg>
