<?xml version="1.0" encoding="UTF-8"?>
<svg version="1.1" xmlns="http://www.w3.org/2000/svg" width="50" height="52">
<path d="M0 0 C4.74924952 2.74175424 7.74146217 6.31234957 10.5 11 C10.87382813 11.59167969 11.24765625 12.18335938 11.6328125 12.79296875 C13.85373074 18.44530571 13.49474763 26.85152991 11.671875 32.62109375 C10.625 34.6875 10.625 34.6875 8.5 38 C7.24012827 39.9513772 7.24012827 39.9513772 6.5 42 C7.81668061 45.13343033 7.81668061 45.13343033 9.5 48 C9.5 48.66 9.5 49.32 9.5 50 C-4.69 50 -18.88 50 -33.5 50 C-32.84 46.7 -32.18 43.4 -31.5 40 C-33.4846252 36.32218422 -33.4846252 36.32218422 -35.23828125 34.47265625 C-38.77799379 30.34116514 -38.03130698 24.02230194 -37.8984375 18.875 C-37.19637979 12.04714463 -34.45511254 7.45254238 -29.203125 3.09375 C-20.50058328 -2.93546191 -9.90733883 -4.49373968 0 0 Z " fill="#FAD892" transform="translate(37.5,2)"/>
<path d="M0 0 C4.74924952 2.74175424 7.74146217 6.31234957 10.5 11 C10.87382813 11.59167969 11.24765625 12.18335938 11.6328125 12.79296875 C13.87520069 18.4999477 13.41417739 26.79566689 11.7421875 32.65625 C10.01738321 36.29599448 8.01461209 38.99165023 4.5 41 C4.21125 40.030625 3.9225 39.06125 3.625 38.0625 C2.85785318 34.89335797 2.85785318 34.89335797 0.5 34 C1.16 33.01 1.82 32.02 2.5 31 C3.49 31 4.48 31 5.5 31 C5.17 25.39 4.84 19.78 4.5 14 C3.51 13.67 2.52 13.34 1.5 13 C1.025625 12.195625 0.55125 11.39125 0.0625 10.5625 C-1.6977817 7.675638 -2.40549699 7.16833277 -5.5 6 C-11.28620509 5.28145165 -17.51922679 4.72955423 -22.5625 8.0625 C-27.03824996 12.02609947 -29.23557179 15.95068138 -30 21.875 C-29.86790562 25.28303506 -28.80567212 27.61467342 -27.25 30.625 C-26.125 32.87890625 -26.125 32.87890625 -25.5 35 C-27.25 38.5625 -27.25 38.5625 -29.5 41 C-34.21564878 36.66670112 -37.08005797 32.92982814 -38.00390625 26.484375 C-38.13933102 17.8533031 -37.48694368 11.52236141 -31.5 5 C-22.46083758 -2.5018899 -11.08943711 -5.02991211 0 0 Z " fill="#393998" transform="translate(37.5,2)"/>
<path d="M0 0 C0.33 0.99 0.66 1.98 1 3 C1.99 2.67 2.98 2.34 4 2 C4 2.66 4 3.32 4 4 C4.99 4 5.98 4 7 4 C7 4.66 7 5.32 7 6 C7.66 6 8.32 6 9 6 C9.33 7.65 9.66 9.3 10 11 C11.65 11 13.3 11 15 11 C15 11.66 15 12.32 15 13 C14.01 13.495 14.01 13.495 13 14 C13.33 14.66 13.66 15.32 14 16 C13.01 16.99 12.02 17.98 11 19 C11.5775 20.14339844 12.155 21.28679688 12.75 22.46484375 C13.50010456 23.95567656 14.25009888 25.44656484 15 26.9375 C15.3815625 27.69224609 15.763125 28.44699219 16.15625 29.22460938 C16.5171875 29.94326172 16.878125 30.66191406 17.25 31.40234375 C17.58515625 32.06741943 17.9203125 32.73249512 18.265625 33.41772461 C19 35 19 35 19 36 C7.31514456 36.71125207 -4.29204426 37.14534014 -16 37 C-15.47247509 32.81618173 -14.58131511 29.75299481 -12.4375 26.125 C-11.98246094 25.34382813 -11.52742187 24.56265625 -11.05859375 23.7578125 C-10.70925781 23.17773438 -10.35992187 22.59765625 -10 22 C-8.55367187 22.06960937 -8.55367187 22.06960937 -7.078125 22.140625 C-5.81484375 22.17671875 -4.5515625 22.2128125 -3.25 22.25 C-1.37054687 22.31960937 -1.37054687 22.31960937 0.546875 22.390625 C4.066186 22.30201661 4.066186 22.30201661 6.453125 20.046875 C8.10048654 18.29463998 8.10048654 18.29463998 8 17 C7.01 17.33 6.02 17.66 5 18 C4.01 18 3.02 18 2 18 C2 14.37 2 10.74 2 7 C1.34 7 0.68 7 0 7 C0 8.65 0 10.3 0 12 C-2.49092811 13.24546405 -3.41080733 12.7767578 -6 12 C-6 10.02 -6 8.04 -6 6 C-4.68 5.34 -3.36 4.68 -2 4 C-2 3.01 -2 2.02 -2 1 C-1.34 0.67 -0.68 0.34 0 0 Z " fill="#F8F8F9" transform="translate(24,13)"/>
<path d="M0 0 C4.17479583 2.04360635 5.76934976 3.96358528 8 8 C8.66 8.33 9.32 8.66 10 9 C10.66796875 11.80078125 10.66796875 11.80078125 11.1875 15.3125 C11.36667969 16.46363281 11.54585937 17.61476563 11.73046875 18.80078125 C11.96720911 21.61078645 11.91376173 23.37536523 11 26 C10.01 26 9.02 26 8 26 C7.34 27.32 6.68 28.64 6 30 C4.68 28.35 3.36 26.7 2 25 C2.99 24.67 3.98 24.34 5 24 C4.505 21.525 4.505 21.525 4 19 C4.99 19 5.98 19 7 19 C7 18.34 7 17.68 7 17 C5.35 17 3.7 17 2 17 C3.32 16.34 4.64 15.68 6 15 C6 14.34 6 13.68 6 13 C4.68 13.33 3.36 13.66 2 14 C2 12 2 12 4 10 C1.9254644 9.8509288 1.9254644 9.8509288 0 11 C0.33 9.68 0.66 8.36 1 7 C0.34 7 -0.32 7 -1 7 C-1.66 7.66 -2.32 8.32 -3 9 C-3 7.35 -3 5.7 -3 4 C-3.99 5.485 -3.99 5.485 -5 7 C-5.33 5.68 -5.66 4.36 -6 3 C-6.99 3.99 -7.98 4.98 -9 6 C-9.66 5.67 -10.32 5.34 -11 5 C-11.33 5.66 -11.66 6.32 -12 7 C-12.99 7 -13.98 7 -15 7 C-14.34 8.32 -13.68 9.64 -13 11 C-13.61875 10.79375 -14.2375 10.5875 -14.875 10.375 C-15.57625 10.25125 -16.2775 10.1275 -17 10 C-17.66 10.66 -18.32 11.32 -19 12 C-21 14 -21 14 -23 15 C-23 17.31 -23 19.62 -23 22 C-23.66 21.67 -24.32 21.34 -25 21 C-25.60912367 14.17781484 -24.39916856 10.27675206 -20 5 C-14.62772474 -1.04563946 -7.68382062 -1.16716263 0 0 Z " fill="#F12322" transform="translate(32,7)"/>
<path d="M0 0 C0.33 0.99 0.66 1.98 1 3 C1.66 2.01 2.32 1.02 3 0 C6 2 6 2 7 4 C5.02 4.99 5.02 4.99 3 6 C3.99 6.66 4.98 7.32 6 8 C6 11 6 11 5 14 C5.66 14.33 6.32 14.66 7 15 C6 18 6 18 3 21 C1.35 24.96 -0.3 28.92 -2 33 C14.83 32.01 14.83 32.01 32 31 C30.68 28.03 29.36 25.06 28 22 C28 21.34 28 20.68 28 20 C28.66 20 29.32 20 30 20 C31.17176518 22.12232979 32.33754785 24.24757791 33.5 26.375 C33.83386719 26.97828125 34.16773438 27.5815625 34.51171875 28.203125 C37 32.7734375 37 32.7734375 37 35 C22.81 35 8.62 35 -6 35 C-3.9116767 28.73503009 -2.33376104 24.40299204 1 19 C0.2265625 18.0409375 0.2265625 18.0409375 -0.5625 17.0625 C-3.11914985 11.61572422 -1.2890813 5.7087886 0 0 Z " fill="#F9841D" transform="translate(10,17)"/>
<path d="M0 0 C0.33 0.99 0.66 1.98 1 3 C1.99 2.67 2.98 2.34 4 2 C4 2.66 4 3.32 4 4 C4.99 4 5.98 4 7 4 C7 4.66 7 5.32 7 6 C7.66 6 8.32 6 9 6 C9.33 7.65 9.66 9.3 10 11 C11.65 11 13.3 11 15 11 C15 11.66 15 12.32 15 13 C14.01 13.495 14.01 13.495 13 14 C13.33 14.66 13.66 15.32 14 16 C13.01 16.99 12.02 17.98 11 19 C11.33 19.99 11.66 20.98 12 22 C8.04 22.495 8.04 22.495 4 23 C4.66 22.195625 5.32 21.39125 6 20.5625 C8.10254514 18.41038085 8.10254514 18.41038085 8 17 C7.01 17.33 6.02 17.66 5 18 C4.01 18 3.02 18 2 18 C2 14.37 2 10.74 2 7 C1.34 7 0.68 7 0 7 C0 8.65 0 10.3 0 12 C-2.49092811 13.24546405 -3.41080733 12.7767578 -6 12 C-6 10.02 -6 8.04 -6 6 C-4.68 5.34 -3.36 4.68 -2 4 C-2 3.01 -2 2.02 -2 1 C-1.34 0.67 -0.68 0.34 0 0 Z " fill="#FEF2DE" transform="translate(24,13)"/>
<path d="M0 0 C1.4420681 0.12092814 2.87941629 0.29886544 4.3125 0.5 C5.51326172 0.63921875 5.51326172 0.63921875 6.73828125 0.78125 C9.99125541 2.53414799 10.40432634 4.89401048 11.50854492 8.30273438 C11.6707251 8.86283203 11.83290527 9.42292969 12 10 C0.31514456 10.71125207 -11.29204426 11.14534014 -23 11 C-22.67 9.02 -22.34 7.04 -22 5 C-21.67 5.66 -21.34 6.32 -21 7 C-19.91332031 6.98259766 -19.91332031 6.98259766 -18.8046875 6.96484375 C-10.52143604 6.8875334 -10.52143604 6.8875334 -6.8125 7.6875 C-2.62914631 8.15231708 0.1608593 6.65480203 4 5 C2.68 4.34 1.36 3.68 0 3 C0 2.01 0 1.02 0 0 Z " fill="#EBE0D6" transform="translate(31,39)"/>
<path d="M0 0 C2.8984375 1.40625 2.8984375 1.40625 5 3 C5 3.66 5 4.32 5 5 C2.36 4.67 -0.28 4.34 -3 4 C-3.99 5.485 -3.99 5.485 -5 7 C-5.33 5.68 -5.66 4.36 -6 3 C-6.99 3.99 -7.98 4.98 -9 6 C-9.66 5.67 -10.32 5.34 -11 5 C-11.33 5.66 -11.66 6.32 -12 7 C-12.99 7 -13.98 7 -15 7 C-14.34 8.32 -13.68 9.64 -13 11 C-13.61875 10.79375 -14.2375 10.5875 -14.875 10.375 C-15.57625 10.25125 -16.2775 10.1275 -17 10 C-17.66 10.66 -18.32 11.32 -19 12 C-21 14 -21 14 -23 15 C-23 17.31 -23 19.62 -23 22 C-23.66 21.67 -24.32 21.34 -25 21 C-25.60912367 14.17781484 -24.39916856 10.27675206 -20 5 C-14.62772474 -1.04563946 -7.68382062 -1.16716263 0 0 Z " fill="#ED2A24" transform="translate(32,7)"/>
<path d="M0 0 C1 2 1 2 0.8125 5.5625 C0.71300509 9.21727959 1.54690245 11.40924711 3.25 14.625 C4.375 16.87890625 4.375 16.87890625 5 19 C3.25 22.5625 3.25 22.5625 1 25 C-3.71168898 20.67033986 -6.81777523 17.31965986 -7.1796875 10.7265625 C-7.18673341 7.4783961 -7.13000647 4.24534681 -7 1 C-6.01 1.33 -5.02 1.66 -4 2 C-2.88482498 7.98729887 -1.80499864 13.96251023 -1 20 C-0.34 20 0.32 20 1 20 C0.5020163 16.26512223 0.12508244 14.18762365 -2 11 C-1.67 10.34 -1.34 9.68 -1 9 C-1.66 8.67 -2.32 8.34 -3 8 C-3 6.68 -3 5.36 -3 4 C-2.34 4 -1.68 4 -1 4 C-1 3.34 -1 2.68 -1 2 C-1.66 1.67 -2.32 1.34 -3 1 C-2.01 0.67 -1.02 0.34 0 0 Z " fill="#343696" transform="translate(7,18)"/>
<path d="M0 0 C0.99 0 1.98 0 3 0 C2.34 1.65 1.68 3.3 1 5 C2.65 4.67 4.3 4.34 6 4 C9 8.75 9 8.75 9 11 C8.01 11.33 7.02 11.66 6 12 C7.32 12.33 8.64 12.66 10 13 C9.814375 13.556875 9.62875 14.11375 9.4375 14.6875 C8.82344116 17.0136192 8.82344116 17.0136192 9.625 19.3125 C10.17323869 23.24154391 8.73043383 25.46991499 7 29 C5.02 29 3.04 29 1 29 C1.33 28.01 1.66 27.02 2 26 C2.99 26 3.98 26 5 26 C4.67 20.39 4.34 14.78 4 9 C3.01 8.67 2.02 8.34 1 8 C-0.6875 4.9375 -0.6875 4.9375 -2 2 C-1.34 1.34 -0.68 0.68 0 0 Z " fill="#9B9CCA" transform="translate(38,7)"/>
<path d="M0 0 C4.29 0.33 8.58 0.66 13 1 C13 1.99 13 2.98 13 4 C13.66 4.33 14.32 4.66 15 5 C14.67 5.99 14.34 6.98 14 8 C12.35 8.33 10.7 8.66 9 9 C8.67 8.34 8.34 7.68 8 7 C7.34 7.66 6.68 8.32 6 9 C3 8.9375 3 8.9375 0 8 C-1.5 5.625 -1.5 5.625 -2 3 C-1.34 2.01 -0.68 1.02 0 0 Z " fill="#F8F7F5" transform="translate(14,35)"/>
<path d="M0 0 C0.66 0 1.32 0 2 0 C3.28571429 7.42857143 3.28571429 7.42857143 2 11 C2.99 11 3.98 11 5 11 C5.33 10.34 5.66 9.68 6 9 C6.33 9 6.66 9 7 9 C7.33 7.68 7.66 6.36 8 5 C8.8125 7.6875 8.8125 7.6875 9 11 C7 13.875 7 13.875 4 16 C0.1875 16.3125 0.1875 16.3125 -3 16 C-3 15.01 -3 14.02 -3 13 C-3.99 12.67 -4.98 12.34 -6 12 C-6.33 11.01 -6.66 10.02 -7 9 C-5.68 9 -4.36 9 -3 9 C-3 9.66 -3 10.32 -3 11 C-2.01 11 -1.02 11 0 11 C0 10.01 0 9.02 0 8 C-0.99 8 -1.98 8 -3 8 C-3 7.34 -3 6.68 -3 6 C-2.34 5.67 -1.68 5.34 -1 5 C-0.34444881 2.47266765 -0.34444881 2.47266765 0 0 Z " fill="#EE272D" transform="translate(24,20)"/>
<path d="M0 0 C0.33 0.99 0.66 1.98 1 3 C1.66 2.01 2.32 1.02 3 0 C6 2 6 2 7 4 C5.02 4.99 5.02 4.99 3 6 C3.99 6.66 4.98 7.32 6 8 C6 11 6 11 5 14 C5.66 14.33 6.32 14.66 7 15 C6 18 6 18 3.9375 19.1875 C3.298125 19.455625 2.65875 19.72375 2 20 C-1.95341098 15.32778702 -1.95341098 15.32778702 -2.078125 11.7734375 C-1.81787631 9.48477987 -1.45644509 7.25732844 -1 5 C-0.814375 3.989375 -0.62875 2.97875 -0.4375 1.9375 C-0.293125 1.298125 -0.14875 0.65875 0 0 Z " fill="#EE3C29" transform="translate(10,17)"/>
<path d="M0 0 C0.66 0.66 1.32 1.32 2 2 C2.66 1.67 3.32 1.34 4 1 C4 2.32 4 3.64 4 5 C4.66 4.34 5.32 3.68 6 3 C6.99 3.66 7.98 4.32 9 5 C8.67 5.66 8.34 6.32 8 7 C8.99 7 9.98 7 11 7 C11.33 7.66 11.66 8.32 12 9 C10.68 9.33 9.36 9.66 8 10 C9.32 10.33 10.64 10.66 12 11 C12 11.66 12 12.32 12 13 C10.125 13.625 10.125 13.625 8 14 C7.34 13.34 6.68 12.68 6 12 C6.33 11.34 6.66 10.68 7 10 C6.34 10 5.68 10 5 10 C5 9.34 5 8.68 5 8 C4.030625 7.87625 3.06125 7.7525 2.0625 7.625 C1.051875 7.41875 0.04125 7.2125 -1 7 C-1.33 6.34 -1.66 5.68 -2 5 C-2.99 6.485 -2.99 6.485 -4 8 C-5.98 7.34 -7.96 6.68 -10 6 C-9 4 -9 4 -6 3 C-5.67 2.34 -5.34 1.68 -5 1 C-3.68 1 -2.36 1 -1 1 C-0.67 0.67 -0.34 0.34 0 0 Z " fill="#FBC161" transform="translate(26,9)"/>
<path d="M0 0 C6.625 -0.125 6.625 -0.125 10 1 C10 2.32 10 3.64 10 5 C10.66 5 11.32 5 12 5 C11.67 6.32 11.34 7.64 11 9 C7.7 8.34 4.4 7.68 1 7 C0.67 4.69 0.34 2.38 0 0 Z " fill="#6163AF" transform="translate(25,0)"/>
<path d="M0 0 C0.66 0 1.32 0 2 0 C3.17176518 2.12232979 4.33754785 4.24757791 5.5 6.375 C5.83386719 6.97828125 6.16773437 7.5815625 6.51171875 8.203125 C9 12.7734375 9 12.7734375 9 15 C6.04112541 15.08069658 3.0844341 15.14034665 0.125 15.1875 C-1.13763672 15.22520508 -1.13763672 15.22520508 -2.42578125 15.26367188 C-3.23144531 15.27333984 -4.03710938 15.28300781 -4.8671875 15.29296875 C-5.61081543 15.3086792 -6.35444336 15.32438965 -7.12060547 15.34057617 C-7.74080566 15.22818604 -8.36100586 15.1157959 -9 15 C-9.66 14.01 -10.32 13.02 -11 12 C-6.05 11.67 -1.1 11.34 4 11 C3.34 9.55625 2.68 8.1125 2 6.625 C0 2.25 0 2.25 0 0 Z " fill="#F5933D" transform="translate(38,37)"/>
<path d="M0 0 C2.62113708 0 4.50935112 0.31292445 7 1 C6.34 2.98 5.68 4.96 5 7 C4.34 7 3.68 7 3 7 C3 7.66 3 8.32 3 9 C3.66 9.33 4.32 9.66 5 10 C5 11.32 5 12.64 5 14 C5.515625 14.825 6.03125 15.65 6.5625 16.5 C8 19 8 19 7.6875 21.3125 C7.460625 21.869375 7.23375 22.42625 7 23 C6.34 23 5.68 23 5 23 C4.3304744 20.37569876 3.66426282 17.75063343 3 15.125 C2.71382813 14.00544922 2.71382813 14.00544922 2.421875 12.86328125 C1 7.2265625 1 7.2265625 1 5 C0.34 4.67 -0.32 4.34 -1 4 C-0.67 2.68 -0.34 1.36 0 0 Z " fill="#9596C7" transform="translate(1,15)"/>
<path d="M0 0 C2.37401485 1.18700742 3.49611741 1.77998285 5 4 C5.09089005 8.35363322 4.42531127 11.36203309 2 15 C-1.125 15.1875 -1.125 15.1875 -4 15 C-3.67 14.01 -3.34 13.02 -3 12 C-2.01 12 -1.02 12 0 12 C0 8.04 0 4.08 0 0 Z " fill="#9699CA" transform="translate(43,21)"/>
<path d="M0 0 C3.09415757 0.42656082 6.05880129 0.92998438 9 2 C10.5625 4.625 10.5625 4.625 11 7 C9.05909174 8.94090826 5.52706098 8.39919435 2.9375 8.5625 C1.00197266 8.68818359 1.00197266 8.68818359 -0.97265625 8.81640625 C-1.97167969 8.87699219 -2.97070312 8.93757813 -4 9 C-1.53721199 6.53721199 0.70676982 6.00228745 4 5 C2.68 4.34 1.36 3.68 0 3 C0 2.01 0 1.02 0 0 Z " fill="#CDCCD7" transform="translate(31,39)"/>
<path d="M0 0 C2.1518391 3.22775865 2.37750891 4.71912507 2.6875 8.5 C2.77386719 9.4590625 2.86023437 10.418125 2.94921875 11.40625 C3 14 3 14 2 17 C1.01 17 0.02 17 -1 17 C-1.66 18.32 -2.32 19.64 -3 21 C-4.32 19.35 -5.64 17.7 -7 16 C-6.34 15.67 -5.68 15.34 -5 15 C-4.34 15.33 -3.68 15.66 -3 16 C-2.67 14.68 -2.34 13.36 -2 12 C-1.34 12 -0.68 12 0 12 C0 8.04 0 4.08 0 0 Z " fill="#B42543" transform="translate(41,16)"/>
<path d="M0 0 C2.97 0.495 2.97 0.495 6 1 C6 1.66 6 2.32 6 3 C5.01 3.495 5.01 3.495 4 4 C4.33 4.66 4.66 5.32 5 6 C4.01 6.99 3.02 7.98 2 9 C2.33 9.99 2.66 10.98 3 12 C0.36 12.33 -2.28 12.66 -5 13 C-4.34 12.278125 -3.68 11.55625 -3 10.8125 C-0.79297537 7.70887162 -0.71029981 6.66953577 -1 3 C-0.67 2.01 -0.34 1.02 0 0 Z " fill="#F6D195" transform="translate(33,23)"/>
<path d="M0 0 C0.66 0 1.32 0 2 0 C2.33 1.32 2.66 2.64 3 4 C1.35 4.66 -0.3 5.32 -2 6 C-2 6.99 -2 7.98 -2 9 C-3.32 8.67 -4.64 8.34 -6 8 C-7.125 4.25 -7.125 4.25 -6 2 C-4.02 2 -2.04 2 0 2 C0 1.34 0 0.68 0 0 Z " fill="#8586C0" transform="translate(11,6)"/>
<path d="M0 0 C-0.99 0.495 -0.99 0.495 -2 1 C-2 2.98 -2 4.96 -2 7 C-4.49092811 8.24546405 -5.41080733 7.7767578 -8 7 C-8 5.02 -8 3.04 -8 1 C-5.29120665 -0.35439668 -2.99066732 -0.06501451 0 0 Z " fill="#FEFCF6" transform="translate(26,18)"/>
<path d="M0 0 C1 1 1 1 1.0625 4.0625 C1.041875 5.031875 1.02125 6.00125 1 7 C-0.32 6.67 -1.64 6.34 -3 6 C-3 5.01 -3 4.02 -3 3 C-3.78375 3.185625 -4.5675 3.37125 -5.375 3.5625 C-8 4 -8 4 -10 3 C-10 2.34 -10 1.68 -10 1 C-6.50615721 -0.16461426 -3.66344611 -0.13568319 0 0 Z " fill="#2F3295" transform="translate(25,0)"/>
<path d="M0 0 C2.97 0.495 2.97 0.495 6 1 C5.67 1.99 5.34 2.98 5 4 C5 7.10551666 5.5393715 8.35261084 7 11 C5.02 11.99 5.02 11.99 3 13 C2.87625 12.278125 2.7525 11.55625 2.625 10.8125 C2.07777503 7.9843652 2.07777503 7.9843652 0.9375 5.375 C0 3 0 3 0 0 Z " fill="#ED8748" transform="translate(10,23)"/>
<path d="M0 0 C0.66 0.33 1.32 0.66 2 1 C-0.33333333 3.33333333 -2.66666667 5.66666667 -5 8 C-5 7.34 -5 6.68 -5 6 C-6.32 6 -7.64 6 -9 6 C-9.66 6.66 -10.32 7.32 -11 8 C-10.67 5.69 -10.34 3.38 -10 1 C-9.01 1.33 -8.02 1.66 -7 2 C-7.33 2.66 -7.66 3.32 -8 4 C-6.68 4.33 -5.36 4.66 -4 5 C-4 4.01 -4 3.02 -4 2 C-2.125 0.9375 -2.125 0.9375 0 0 Z " fill="#403B96" transform="translate(13,10)"/>
<path d="M0 0 C0.66 0 1.32 0 2 0 C3.85776765 3.13498292 4.20140476 5.37471432 4 9 C3.34 9 2.68 9 2 9 C1.67 10.32 1.34 11.64 1 13 C0.34 12.67 -0.32 12.34 -1 12 C-0.67 11.01 -0.34 10.02 0 9 C-0.33 8.34 -0.66 7.68 -1 7 C-0.01 7 0.98 7 2 7 C2 6.34 2 5.68 2 5 C0.35 5 -1.3 5 -3 5 C-1.68 4.34 -0.36 3.68 1 3 C0.67 2.01 0.34 1.02 0 0 Z " fill="#F2552C" transform="translate(37,19)"/>
<path d="M0 0 C0.66 0.33 1.32 0.66 2 1 C0.02 5.29 -1.96 9.58 -4 14 C-4.66 14 -5.32 14 -6 14 C-5.57202798 8.29370646 -3.15654048 4.58921384 0 0 Z " fill="#EC923E" transform="translate(11,37)"/>
<path d="M0 0 C0.66 0 1.32 0 2 0 C3.28571429 7.42857143 3.28571429 7.42857143 2 11 C1.34 11 0.68 11 0 11 C0 10.01 0 9.02 0 8 C-0.99 8 -1.98 8 -3 8 C-3 7.34 -3 6.68 -3 6 C-2.34 5.67 -1.68 5.34 -1 5 C-0.34444881 2.47266765 -0.34444881 2.47266765 0 0 Z " fill="#F58738" transform="translate(24,20)"/>
<path d="M0 0 C-0.33 1.32 -0.66 2.64 -1 4 C-3.31 4.33 -5.62 4.66 -8 5 C-8.33 4.01 -8.66 3.02 -9 2 C-3.375 -1.125 -3.375 -1.125 0 0 Z " fill="#B6B9DA" transform="translate(23,3)"/>
<path d="M0 0 C3.98671063 1.36687222 6.88494633 3.15195093 10 6 C10 6.66 10 7.32 10 8 C9.443125 7.649375 8.88625 7.29875 8.3125 6.9375 C5.46113217 5.78154007 3.91482778 6.19032562 1 7 C1.33 5.68 1.66 4.36 2 3 C1.34 3 0.68 3 0 3 C0 2.01 0 1.02 0 0 Z " fill="#37399C" transform="translate(35,2)"/>
<path d="M0 0 C2.97 0.99 5.94 1.98 9 3 C7.49336217 6.01327566 4.96833589 6.61056618 2 8 C2.33 6.68 2.66 5.36 3 4 C2.34 4 1.68 4 1 4 C0.34 4.66 -0.32 5.32 -1 6 C-0.67 4.02 -0.34 2.04 0 0 Z " fill="#EB3127" transform="translate(30,10)"/>
<path d="M0 0 C2 0 4 0 6 0 C6 1.65 6 3.3 6 5 C5.01 5 4.02 5 3 5 C2.67 5.66 2.34 6.32 2 7 C0.02 6.34 -1.96 5.68 -4 5 C-3 3 -3 3 0 2 C0 1.34 0 0.68 0 0 Z " fill="#F8943D" transform="translate(20,10)"/>
<path d="M0 0 C2.06183633 -0.08150744 4.12461349 -0.1394194 6.1875 -0.1875 C7.33605469 -0.22230469 8.48460937 -0.25710937 9.66796875 -0.29296875 C13.29157624 0.02563683 15.14639144 0.78052668 18 3 C18 3.66 18 4.32 18 5 C13.25 4.125 13.25 4.125 11 3 C11 2.34 11 1.68 11 1 C7.37 1 3.74 1 0 1 C0 0.67 0 0.34 0 0 Z " fill="#941F52" transform="translate(19,7)"/>
<path d="M0 0 C3.3 0 6.6 0 10 0 C9.34 1.98 8.68 3.96 8 6 C7.34 4.68 6.68 3.36 6 2 C5.01 2.99 4.02 3.98 3 5 C1.5 3.625 1.5 3.625 0 2 C0 1.34 0 0.68 0 0 Z " fill="#F22920" transform="translate(20,8)"/>
<path d="M0 0 C1.98 0 3.96 0 6 0 C6.33 1.65 6.66 3.3 7 5 C6.01 5.66 5.02 6.32 4 7 C3.566875 5.5459375 3.566875 5.5459375 3.125 4.0625 C2.35785318 0.89335797 2.35785318 0.89335797 0 0 Z " fill="#323190" transform="translate(38,36)"/>
<path d="M0 0 C1.98 0.495 1.98 0.495 4 1 C3.67 1.66 3.34 2.32 3 3 C3.99 3 4.98 3 6 3 C6 3.99 6 4.98 6 6 C4.35 6 2.7 6 1 6 C1 5.34 1 4.68 1 4 C0.34 4 -0.32 4 -1 4 C-0.67 2.68 -0.34 1.36 0 0 Z " fill="#F7A4A3" transform="translate(18,25)"/>
<path d="M0 0 C2.62113708 0 4.50935112 0.31292445 7 1 C6.34 2.65 5.68 4.3 5 6 C2.83125748 5.49396008 1.00032373 5.00016187 -1 4 C-0.67 2.68 -0.34 1.36 0 0 Z " fill="#7A7BBC" transform="translate(1,15)"/>
<path d="M0 0 C0.99 0.33 1.98 0.66 3 1 C3 1.66 3 2.32 3 3 C2.01 3.33 1.02 3.66 0 4 C1.98 4.495 1.98 4.495 4 5 C4 5.99 4 6.98 4 8 C0.125 7.125 0.125 7.125 -1 6 C-1.125 3.5 -1.125 3.5 -1 1 C-0.67 0.67 -0.34 0.34 0 0 Z " fill="#C1C2DE" transform="translate(44,15)"/>
<path d="M0 0 C2.97 0 5.94 0 9 0 C8.01 1.485 8.01 1.485 7 3 C3.375 3.1875 3.375 3.1875 0 3 C0 2.01 0 1.02 0 0 Z " fill="#EA6958" transform="translate(21,33)"/>
<path d="M0 0 C0.33 0.99 0.66 1.98 1 3 C1.66 3.33 2.32 3.66 3 4 C3.33 4.66 3.66 5.32 4 6 C3.0625 8.125 3.0625 8.125 2 10 C0.4375 8.375 0.4375 8.375 -1 6 C-0.6875 2.75 -0.6875 2.75 0 0 Z " fill="#E92522" transform="translate(10,27)"/>
<path d="M0 0 C0.66 0 1.32 0 2 0 C2.33 1.32 2.66 2.64 3 4 C2.34 4 1.68 4 1 4 C1 6.31 1 8.62 1 11 C0.34 10.67 -0.32 10.34 -1 10 C-1.125 2.25 -1.125 2.25 0 0 Z " fill="#D11D33" transform="translate(8,18)"/>
<path d="M0 0 C0.99 0 1.98 0 3 0 C3.33 0.66 3.66 1.32 4 2 C4.66 2 5.32 2 6 2 C5.67 3.32 5.34 4.64 5 6 C3.02 5.34 1.04 4.68 -1 4 C-0.67 2.68 -0.34 1.36 0 0 Z " fill="#C8CAE3" transform="translate(31,3)"/>
<path d="M0 0 C0.99 0.33 1.98 0.66 3 1 C2.01 1.495 2.01 1.495 1 2 C1.66 3.32 2.32 4.64 3 6 C1.66666667 6.66666667 0.33333333 7.33333333 -1 8 C-1.66 6.68 -2.32 5.36 -3 4 C-2.01 2.68 -1.02 1.36 0 0 Z " fill="#E61B26" transform="translate(12,12)"/>
<path d="M0 0 C0.33 1.32 0.66 2.64 1 4 C-2 5 -2 5 -5 5 C-5 3.68 -5 2.36 -5 1 C-3 0 -3 0 0 0 Z " fill="#F8ABA7" transform="translate(31,26)"/>
<path d="M0 0 C2.31 0 4.62 0 7 0 C6.67 1.32 6.34 2.64 6 4 C3.03 3.505 3.03 3.505 0 3 C0 2.01 0 1.02 0 0 Z " fill="#B2B2D6" transform="translate(14,40)"/>
<path d="M0 0 C0.66 0 1.32 0 2 0 C2.33 1.32 2.66 2.64 3 4 C1.125 5.0625 1.125 5.0625 -1 6 C-1.66 5.67 -2.32 5.34 -3 5 C-2.67 4.01 -2.34 3.02 -2 2 C-1.34 2 -0.68 2 0 2 C0 1.34 0 0.68 0 0 Z " fill="#C3C3DF" transform="translate(11,6)"/>
<path d="M0 0 C2.31 0 4.62 0 7 0 C6.67 0.99 6.34 1.98 6 3 C4.35 3.33 2.7 3.66 1 4 C0.67 2.68 0.34 1.36 0 0 Z " fill="#B3B3D7" transform="translate(22,40)"/>
<path d="M0 0 C2 3 2 3 1.6875 5.125 C1 7 1 7 0 8 C-1.66617115 8.04063832 -3.33388095 8.042721 -5 8 C-4.67 7.34 -4.34 6.68 -4 6 C-3.34 6 -2.68 6 -2 6 C-1.67 5.34 -1.34 4.68 -1 4 C-0.67 4 -0.34 4 0 4 C0 2.68 0 1.36 0 0 Z " fill="#EF373A" transform="translate(31,25)"/>
<path d="M0 0 C2.97 0.495 2.97 0.495 6 1 C5.34 2.32 4.68 3.64 4 5 C3.34 5 2.68 5 2 5 C1.67 5.66 1.34 6.32 1 7 C0.31292445 4.50935112 0 2.62113708 0 0 Z " fill="#F67D36" transform="translate(10,23)"/>
<path d="M0 0 C0 0.66 0 1.32 0 2 C-0.66 2 -1.32 2 -2 2 C-2 2.66 -2 3.32 -2 4 C-2.99 4.33 -3.98 4.66 -5 5 C-5.66 4.34 -6.32 3.68 -7 3 C-3.375 0 -3.375 0 0 0 Z " fill="#363799" transform="translate(13,4)"/>
<path d="M0 0 C1.98 0 3.96 0 6 0 C5.67 0.99 5.34 1.98 5 3 C3.02 3 1.04 3 -1 3 C-0.67 2.01 -0.34 1.02 0 0 Z " fill="#8482BC" transform="translate(40,33)"/>
</svg>
